<?xml version="1.0" encoding="UTF-8" standalone="no"?>
<!-- Created with Inkscape (http://www.inkscape.org/) -->

<svg
   width="48"
   height="38"
   viewBox="0 0 12.7 10.054167"
   version="1.1"
   id="svg4296"
   inkscape:version="1.1.1 (3bf5ae0d25, 2021-09-20)"
   sodipodi:docname="h7-logo.svg"
   xmlns:inkscape="http://www.inkscape.org/namespaces/inkscape"
   xmlns:sodipodi="http://sodipodi.sourceforge.net/DTD/sodipodi-0.dtd"
   xmlns="http://www.w3.org/2000/svg"
   xmlns:svg="http://www.w3.org/2000/svg">
  <sodipodi:namedview
     id="namedview4298"
     pagecolor="#ededed"
     bordercolor="#666666"
     borderopacity="1.0"
     inkscape:pageshadow="2"
     inkscape:pageopacity="0"
     inkscape:pagecheckerboard="0"
     inkscape:document-units="px"
     showgrid="true"
     units="px"
     inkscape:showpageshadow="false"
     showguides="true"
     inkscape:guide-bbox="true"
     inkscape:zoom="6.1252868"
     inkscape:cx="24.570278"
     inkscape:cy="22.121413"
     inkscape:window-width="1920"
     inkscape:window-height="1001"
     inkscape:window-x="-9"
     inkscape:window-y="-9"
     inkscape:window-maximized="1"
     inkscape:current-layer="layer1">
    <inkscape:grid
       type="xygrid"
       id="grid4462"
       spacingx="0.26458333"
       spacingy="0.26458333"
       empspacing="10"
       originx="0"
       originy="0" />
    <sodipodi:guide
       position="0.26458333,0.26458349"
       orientation="1,0"
       id="guide4464" />
    <sodipodi:guide
       position="0.26458333,12.435417"
       orientation="0,-1"
       id="guide4466" />
    <sodipodi:guide
       position="12.435417,0.26458349"
       orientation="0,-1"
       id="guide4468" />
    <sodipodi:guide
       position="12.435417,12.435417"
       orientation="1,0"
       id="guide4470" />
  </sodipodi:namedview>
  <defs
     id="defs4293">
    <marker
       inkscape:stockid="Arrow2Lend"
       orient="auto"
       refY="0"
       refX="0"
       id="Arrow2Lend"
       style="overflow:visible"
       inkscape:isstock="true">
      <path
         id="path4634"
         style="fill:#000000;fill-opacity:1;fill-rule:evenodd;stroke:#000000;stroke-width:0.625;stroke-linejoin:round;stroke-opacity:1"
         d="M 8.7185878,4.0337352 -2.2072895,0.01601326 8.7185884,-4.0017078 c -1.7454984,2.3720609 -1.7354408,5.6174519 -6e-7,8.035443 z"
         transform="matrix(-1.1,0,0,-1.1,-1.1,0)" />
    </marker>
    <linearGradient
       id="linearGradient4550"
       inkscape:swatch="solid">
      <stop
         style="stop-color:#ffffff;stop-opacity:1;"
         offset="0"
         id="stop4548" />
    </linearGradient>
    <marker
       inkscape:stockid="Arrow2Lend"
       orient="auto"
       refY="0"
       refX="0"
       id="Arrow2Lend-5"
       style="overflow:visible"
       inkscape:isstock="true">
      <path
         id="path4634-3"
         style="fill:#000000;fill-opacity:1;fill-rule:evenodd;stroke:#000000;stroke-width:0.625;stroke-linejoin:round;stroke-opacity:1"
         d="M 8.7185878,4.0337352 -2.2072895,0.01601326 8.7185884,-4.0017078 c -1.7454984,2.3720609 -1.7354408,5.6174519 -6e-7,8.035443 z"
         transform="matrix(-1.1,0,0,-1.1,-1.1,0)" />
    </marker>
    <marker
       inkscape:stockid="Arrow2Lend"
       orient="auto"
       refY="0"
       refX="0"
       id="Arrow2Lend-6"
       style="overflow:visible"
       inkscape:isstock="true">
      <path
         id="path4634-34"
         style="fill:#000000;fill-opacity:1;fill-rule:evenodd;stroke:#000000;stroke-width:0.625;stroke-linejoin:round;stroke-opacity:1"
         d="M 8.7185878,4.0337352 -2.2072895,0.01601326 8.7185884,-4.0017078 c -1.7454984,2.3720609 -1.7354408,5.6174519 -6e-7,8.035443 z"
         transform="matrix(-1.1,0,0,-1.1,-1.1,0)" />
    </marker>
  </defs>
  <g
     inkscape:label="Layer 1"
     inkscape:groupmode="layer"
     id="layer1">
    <g
       id="g3235"
       transform="matrix(1.0108536,0,0,1.0108536,-0.06892043,-1.374404)">
      <path
         style="display:inline;fill:#ffffff;fill-opacity:1;fill-rule:nonzero;stroke:none;stroke-width:0.233116;stroke-linecap:butt;stroke-linejoin:miter;stroke-miterlimit:4;stroke-dasharray:none;stroke-dashoffset:3.23528;stroke-opacity:1;paint-order:stroke markers fill"
         d="m 6.4565044,8.1562589 c -0.5020952,0 -0.9075487,0.4050581 -0.9075487,0.9071532 0,0.5020934 0.4054535,0.9075457 0.9075487,0.9075457 0.5020951,0 0.9075468,-0.4054523 0.9075468,-0.9075457 0,-0.5020951 -0.4054517,-0.9071532 -0.9075468,-0.9071532 z M 5.9839385,8.5724488 c 0.030544,-0.00452 0.066477,0.00785 0.088222,0.014233 0.043494,0.012791 0.7162914,0.00341 0.8379202,0.00341 0.121631,0 0.1253387,0.04216 0.076551,0.1093881 C 6.7570988,9.0157917 6.4953288,9.5548976 6.4693609,9.6503526 6.4433787,9.7458076 6.2317838,9.7286576 6.2725412,9.5811178 6.3133013,9.4335781 6.7534156,8.7394416 6.7534156,8.7394416 l -0.6448582,0.018183 c 0,0 -0.00236,0.1322901 -0.025516,0.2187763 -0.023192,0.08649 -0.1366762,0.083757 -0.1457863,0.00341 -0.0091,-0.080199 -0.00909,-0.1985528 -0.00909,-0.3206504 0,-0.061052 0.025237,-0.082478 0.05578,-0.087033 z"
         id="rect4764"
         inkscape:connector-curvature="0" />
      <path
         style="display:inline;fill:#ffffff;fill-opacity:1;stroke:none;stroke-width:0.00224777;stroke-linecap:butt;stroke-linejoin:miter;stroke-miterlimit:4;stroke-dasharray:none;stroke-opacity:1"
         d="M 6.5457162,4.1152162 C 5.9875621,4.5870245 4.7571863,5.7680194 4.9699681,7.0416029 5.5391973,7.3495493 5.8850057,7.728498 6.117855,8.061902 6.2271856,8.023777 6.3442276,8.001965 6.4663939,8.001965 c 0.089195,0 0.1753194,0.012211 0.2581415,0.033035 C 6.9558362,7.6558829 7.3222298,7.2594184 7.8593661,6.9830521 7.8418155,5.5550381 6.9172425,5.0461687 6.5457162,4.1152156 Z M 5.7604134,5.2543967 c 8.078e-4,-1.55e-5 0.00174,-1.55e-5 0.00255,0 h 0.6189438 v 0.2569552 c 0.3930112,-0.00596 0.7117478,0.3248953 0.7186411,0.7115194 0.00759,0.4253991 -0.3476485,0.7709601 -0.7649274,0.783126 -0.0046,0.00118 -0.00932,0.00149 -0.014044,0.00149 -0.00299,-1.324e-4 -0.00596,-4.052e-4 -0.0089,-0.00118 -9.983e-4,-1.331e-4 -0.00199,-1.995e-4 -0.00299,-4.053e-4 C 6.2720339,7.000242 6.2493209,6.961159 6.2630049,6.925621 V 6.7541198 C 5.9688532,6.7279388 5.7387986,6.471935 5.7297108,6.1755299 5.71983,5.8530956 5.9598058,5.5847102 6.2630044,5.5241435 V 5.3732148 H 5.7629432 c -0.079388,0.00193 -0.081959,-0.1173651 -0.00255,-0.1190803 z M 6.3819299,5.6300376 V 5.7611874 C 6.6336484,5.7550352 6.8376693,5.9649926 6.8501445,6.2108056 6.8642386,6.4883887 6.6470234,6.7182239 6.3819299,6.7524065 V 6.8841491 C 6.7134789,6.849237 6.9875663,6.5658411 6.9814897,6.2250489 6.975729,5.9021211 6.707684,5.6239743 6.3819299,5.6300376 Z M 6.2630473,5.6460768 C 6.0260102,5.7046531 5.8412817,5.9193546 5.8490316,6.1720493 5.8561843,6.4052558 6.0355902,6.6079207 6.2630473,6.6343292 V 6.5027854 C 6.110893,6.4781705 5.9938249,6.3436475 5.9803771,6.1888647 5.9638594,5.9987433 6.0926838,5.8379009 6.2630473,5.7823671 Z m 0.1188826,0.234601 v 0.1275853 c 0.049118,-0.0023 0.095826,0.014356 0.1313455,0.042133 0.045085,0.035291 0.076072,0.086375 0.08585,0.1436095 0.025206,0.1476203 -0.082989,0.2728596 -0.2171953,0.3048261 V 6.6301766 C 6.5805966,6.5967991 6.7417399,6.423358 6.7312606,6.2169533 6.7219019,6.0325927 6.5670425,5.8747821 6.3819299,5.8806778 Z M 6.2630473,5.9089658 C 6.1611198,5.9576988 6.0889135,6.0617545 6.0990622,6.178579 c 0.00825,0.095 0.076339,0.178324 0.1639851,0.2023592 V 6.2529543 c -0.00865,-0.00716 -0.016785,-0.015965 -0.024528,-0.029282 -0.026871,-0.046172 -0.017717,-0.1015758 0.00553,-0.1376761 0.00566,-0.00881 0.012075,-0.016885 0.018991,-0.024347 z m 0.1447958,0.2187769 c -0.0082,-0.00193 -0.017027,-4.053e-4 -0.025914,7.456e-4 v 0.015424 c 0.019569,0.011099 0.031203,0.032308 0.030065,0.054792 -8.079e-4,0.019948 -0.011708,0.044887 -0.030065,0.060329 v 0.1153213 c 0.064345,-0.027182 0.1115457,-0.091026 0.099695,-0.1604217 -0.00447,-0.026181 -0.021172,-0.053586 -0.041934,-0.069828 -0.010378,-0.00811 -0.020899,-0.01374 -0.031848,-0.016425 z"
         id="path4933-0"
         inkscape:connector-curvature="0"
         sodipodi:nodetypes="cccscccccccccccccccccccccccccccccccccccccccccccccccccccccccccc" />
      <path
         style="display:inline;fill:#ffffff;fill-opacity:1;stroke:none;stroke-width:0.00224777;stroke-linecap:butt;stroke-linejoin:miter;stroke-miterlimit:4;stroke-dasharray:none;stroke-opacity:1"
         d="M 6.0707745,3.4923194 C 5.9165857,3.831527 6.0658652,4.4199727 6.0658652,4.4199727 5.9302803,4.5389076 5.7618041,4.692263 5.6613425,4.8270258 5.4943821,4.2178938 5.7046379,3.8324 6.0707702,3.4923194 Z"
         id="path4936-0"
         inkscape:connector-curvature="0"
         sodipodi:nodetypes="ccccc" />
      <path
         style="display:inline;fill:#ffffff;fill-opacity:1;stroke:none;stroke-width:0.00224777;stroke-linecap:butt;stroke-linejoin:miter;stroke-miterlimit:4;stroke-dasharray:none;stroke-opacity:1"
         d="M 6.6049692,2.1380608 C 6.9501301,2.7056028 7.3375261,3.277462 7.4747558,3.9519626 7.3071893,4.2584802 7.1402254,4.8849409 7.1402254,4.8849409 6.9391022,4.6524577 6.6729912,4.2109046 6.5752298,3.9668297 c 0,0 -0.2353647,0.2150253 -0.434887,0.3865738 C 6.0783548,4.1420988 6.0298861,3.6447166 6.1923815,3.3869808 5.9794599,3.4249132 5.7708882,3.6988435 5.6311111,3.9110773 5.7501609,3.4824747 6.1599148,2.6511553 6.6049717,2.1380608 Z"
         id="path4938-7"
         inkscape:connector-curvature="0"
         sodipodi:nodetypes="cccccccc" />
      <path
         style="display:inline;fill:#ffffff;fill-opacity:1;stroke:none;stroke-width:0.00224777;stroke-linecap:butt;stroke-linejoin:miter;stroke-miterlimit:4;stroke-dasharray:none;stroke-opacity:1"
         d="M 6.8391426,2.4168383 C 7.0958615,2.1832334 7.4821852,2.0377024 7.6680379,1.6213894 7.9958003,2.3911955 8.0073371,3.2250291 7.5788336,3.8813428 7.4625527,3.4857397 7.1102405,2.6838949 6.8391426,2.4168383 Z"
         id="path4945-3"
         inkscape:connector-curvature="0"
         sodipodi:nodetypes="cccc" />
      <path
         style="display:inline;fill:#ffffff;fill-opacity:1;stroke:none;stroke-width:0.00224777;stroke-linecap:butt;stroke-linejoin:miter;stroke-miterlimit:4;stroke-dasharray:none;stroke-opacity:1"
         d="M 7.8576056,1.9187558 C 8.1042712,2.2968545 8.1852871,2.5509044 8.255325,2.9855405 8.172972,3.0596321 8.0273666,3.2140851 7.8799105,3.4353042 8.0744221,2.9539991 7.9863625,2.3732659 7.8575974,1.9187558 Z"
         id="path4947-6"
         inkscape:connector-curvature="0"
         sodipodi:nodetypes="cccc" />
      <path
         style="display:inline;fill:#ffffff;fill-opacity:1;stroke:none;stroke-width:0.00224777;stroke-linecap:butt;stroke-linejoin:miter;stroke-miterlimit:4;stroke-dasharray:none;stroke-opacity:1"
         d="M 8.4783507,2.9037624 C 8.9465239,3.9975025 9.018095,5.392478 8.6976514,6.2788221 8.7091311,5.728203 8.6043853,5.0822622 8.1884243,4.5392562 8.0586717,4.8920532 7.9213322,5.2815471 7.6606058,5.6171919 7.5597141,5.4547567 7.3843265,5.1614831 7.2331475,5.0150337 7.4573888,4.3444766 7.8799105,3.4353042 8.4783507,2.9037624 Z"
         id="path4949-1"
         inkscape:connector-curvature="0"
         sodipodi:nodetypes="cccccc" />
      <path
         style="display:inline;fill:#ffffff;fill-opacity:1;stroke:none;stroke-width:0.00224777;stroke-linecap:butt;stroke-linejoin:miter;stroke-miterlimit:4;stroke-dasharray:none;stroke-opacity:1"
         d="M 8.1809894,4.7102349 C 8.2096711,5.24882 7.9276627,5.7968739 7.772115,5.9182702 L 7.7163581,5.7398511 C 7.9144781,5.5157268 8.103975,4.9633888 8.1809894,4.7102349 Z"
         id="path4951-8"
         inkscape:connector-curvature="0"
         sodipodi:nodetypes="cccc" />
      <path
         style="display:inline;fill:#ffffff;fill-opacity:1;stroke:none;stroke-width:0.00224777;stroke-linecap:butt;stroke-linejoin:miter;stroke-miterlimit:4;stroke-dasharray:none;stroke-opacity:1"
         d="M 7.8167202,6.063235 C 7.8751436,6.3495723 7.951105,6.6708005 7.9542513,6.9330155 8.2213036,6.8495496 8.5373871,6.5143037 8.6158771,6.3903309 8.6423266,6.0544915 8.574655,5.3462912 8.2850634,4.762278 8.303968,5.1372528 8.0779596,5.8103484 7.8167202,6.063235 Z"
         id="path4953-2"
         inkscape:connector-curvature="0"
         sodipodi:nodetypes="ccccc" />
      <path
         style="display:inline;fill:#ffffff;fill-opacity:1;stroke:none;stroke-width:0.00224777;stroke-linecap:butt;stroke-linejoin:miter;stroke-miterlimit:4;stroke-dasharray:none;stroke-opacity:1"
         d="M 8.7608421,6.4089148 C 9.1081991,6.1416823 9.3407456,5.7565167 9.4150374,5.2975242 9.3295002,4.905447 9.1651435,4.2716447 8.8686359,3.862762 9.0739246,4.6061485 9.0491045,5.6167936 8.7608421,6.4089148 Z"
         id="path4955-5"
         inkscape:connector-curvature="0"
         sodipodi:nodetypes="cccc" />
      <path
         style="display:inline;fill:#ffffff;fill-opacity:1;stroke:none;stroke-width:0.00224777;stroke-linecap:butt;stroke-linejoin:miter;stroke-miterlimit:4;stroke-dasharray:none;stroke-opacity:1"
         d="m 9.0173182,3.9222313 c 0.1635432,0.1598321 0.3589566,0.719979 0.4386076,1.1113907 0.00174,-0.1401295 0.019196,-0.3131514 0.044594,-0.3940068 0.099747,0.067825 0.1625533,0.1715442 0.2341698,0.2973615 C 10.085081,4.4494858 10.299676,3.6248692 10.221616,3.1602428 9.7515808,3.2429854 9.145743,3.6524348 9.0172802,3.9222313 Z"
         id="path4957-0"
         inkscape:connector-curvature="0"
         sodipodi:nodetypes="cccccc" />
      <path
         style="display:inline;fill:#ffffff;fill-opacity:1;stroke:none;stroke-width:0.00224777;stroke-linecap:butt;stroke-linejoin:miter;stroke-miterlimit:4;stroke-dasharray:none;stroke-opacity:1"
         d="m 9.7718706,5.0410562 c -9.301e-4,0.082309 0.081778,0.2155833 0.081778,0.2155833 C 10.16298,4.8263019 10.444174,4.2781896 10.292259,3.7512464 10.277873,4.1907278 9.9363503,4.8397994 9.7718706,5.0410562 Z"
         id="path4959-9"
         inkscape:connector-curvature="0"
         sodipodi:nodetypes="cccc" />
      <path
         style="display:inline;fill:#ffffff;fill-opacity:1;stroke:none;stroke-width:0.00224777;stroke-linecap:butt;stroke-linejoin:miter;stroke-miterlimit:4;stroke-dasharray:none;stroke-opacity:1"
         d="m 10.214199,6.9069973 c 0.590869,-0.2650469 1.014066,-0.5440431 1.286091,-1.085373 0.272025,-0.5413281 0.320606,-1.0692991 0.598444,-1.6503529 -0.554786,-0.064384 -1.434692,0.3372779 -1.817626,0.5612674 -0.09301,0.1942551 -0.251797,0.4425984 -0.3754198,0.5910085 0.2257808,0.4717841 0.3569708,1.053053 0.3085108,1.58345 z"
         id="path4961-0"
         inkscape:connector-curvature="0"
         sodipodi:nodetypes="czcccc" />
      <path
         style="display:inline;fill:#ffffff;fill-opacity:1;stroke:none;stroke-width:0.00224777;stroke-linecap:butt;stroke-linejoin:miter;stroke-miterlimit:4;stroke-dasharray:none;stroke-opacity:1"
         d="M 12.002087,4.6879335 C 12.121311,6.6781999 11.138089,8.9916662 9.1028088,9.3044802 9.721486,8.7772416 10.217073,7.8505065 10.229071,7.0147931 11.08111,6.5544918 11.693305,6.3849529 12.002087,4.6879335 Z"
         id="path4963-8"
         inkscape:connector-curvature="0"
         sodipodi:nodetypes="cccc" />
      <path
         style="display:inline;fill:#ffffff;fill-opacity:1;stroke:none;stroke-width:0.00224777;stroke-linecap:butt;stroke-linejoin:miter;stroke-miterlimit:4;stroke-dasharray:none;stroke-opacity:1"
         d="M 9.8424984,9.2450043 C 10.543147,8.8898423 11.138426,8.2886377 11.414798,7.7842157 11.735773,7.807563 12.090332,8.0373243 12.370077,8.32318 11.988186,8.9175507 10.844245,9.6076035 9.8424984,9.2450043 Z"
         id="path4965-5"
         inkscape:connector-curvature="0"
         sodipodi:nodetypes="cccc" />
      <path
         style="display:inline;fill:#ffffff;fill-opacity:1;stroke:none;stroke-width:0.00224777;stroke-linecap:butt;stroke-linejoin:miter;stroke-miterlimit:4;stroke-dasharray:none;stroke-opacity:1"
         d="M 12.121034,8.7394876 C 11.809313,9.4982316 10.95017,10.285774 10.054367,10.14824 10.06179,9.7988429 9.9395128,9.5788874 9.6715123,9.3565163 10.4257,9.5281457 11.243301,9.605088 12.121034,8.7394876 Z"
         id="path4967-5"
         inkscape:connector-curvature="0"
         sodipodi:nodetypes="cccc" />
      <path
         style="display:inline;fill:#ffffff;fill-opacity:1;stroke:none;stroke-width:0.00224777;stroke-linecap:butt;stroke-linejoin:miter;stroke-miterlimit:4;stroke-dasharray:none;stroke-opacity:1"
         d="M 9.2824054,9.4107649 C 9.1733389,9.4107299 9.0557725,9.4327794 8.935448,9.4829605 8.5445329,9.646058 7.9011151,10.087671 7.1612982,9.8740317 7.1144303,9.9147756 7.0638822,9.9512872 7.0103703,9.9834199 7.2415108,10.189331 7.5499986,10.422145 7.8538275,10.519877 8.452389,10.712409 9.1349605,10.693791 9.4707203,10.505022 9.8064764,10.31627 9.9217231,10.130629 9.8871073,9.832275 9.8611439,9.6085105 9.6096001,9.4108477 9.2824054,9.4107453 Z"
         id="path4969-7"
         inkscape:connector-curvature="0"
         sodipodi:nodetypes="sscccccs" />
      <path
         style="display:inline;fill:#ffffff;fill-opacity:1;stroke:none;stroke-width:0.00224777;stroke-linecap:butt;stroke-linejoin:miter;stroke-miterlimit:4;stroke-dasharray:none;stroke-opacity:1"
         d="m 6.8459902,10.054037 c -0.00981,0.0038 -0.019718,0.0074 -0.029673,0.01087 0.519085,0.648026 1.2031796,0.861826 1.6732676,0.934452 0.4926264,0.0761 1.3500982,-0.09687 1.4495455,-0.747126 -0.1538842,0.25901 -0.6592984,0.557225 -1.2861552,0.52795 -0.598116,-0.02795 -1.0962485,-0.154955 -1.8069857,-0.726157 z"
         id="path4971-5"
         inkscape:connector-curvature="0" />
      <path
         style="display:inline;fill:#ffffff;fill-opacity:1;stroke:none;stroke-width:0.00224777;stroke-linecap:butt;stroke-linejoin:miter;stroke-miterlimit:4;stroke-dasharray:none;stroke-opacity:1"
         d="M 9.5450959,4.8142715 C 9.5926915,6.0974058 8.76132,6.6914973 8.0807148,7.0259788 7.6851383,7.2203787 7.1563086,7.591262 6.8337263,8.0897926 7.239877,8.238902 7.5308057,8.6282923 7.5308057,9.0855631 c 0,0.2685188 -0.1009302,0.5134513 -0.2658559,0.7006393 C 7.9063546,9.9600444 8.6560646,9.594795 9.3815079,8.7617504 10.383318,7.6113547 10.136528,6.0320571 9.5450959,4.8142715 Z"
         id="path4973-2"
         inkscape:connector-curvature="0"
         sodipodi:nodetypes="cscsccc" />
      <path
         style="display:inline;fill:#ffffff;fill-opacity:1;stroke:none;stroke-width:0.00224777;stroke-linecap:butt;stroke-linejoin:miter;stroke-miterlimit:4;stroke-dasharray:none;stroke-opacity:1"
         d="m 5.9738496,10.003398 c -0.8507423,0.72337 -2.273251,1.283931 -2.9817745,0.174665 0.1395826,1.330982 2.3412464,1.099056 3.098878,-0.122442 -0.040194,-0.01527 -0.079397,-0.03238 -0.1171035,-0.05223 z"
         id="path5008-2"
         inkscape:connector-curvature="0"
         sodipodi:nodetypes="cccc" />
      <path
         style="display:inline;fill:#ffffff;fill-opacity:1;stroke:none;stroke-width:0.00224777;stroke-linecap:butt;stroke-linejoin:miter;stroke-miterlimit:4;stroke-dasharray:none;stroke-opacity:1"
         d="M 3.6610655,9.2560773 C 3.3635039,9.4621304 3.1257343,9.8157761 3.0328244,10.085095 3.6911298,11.116304 5.0337204,10.699104 5.906595,9.9580998 5.8346221,9.9121168 5.7685765,9.857933 5.7097746,9.7964921 5.0477424,9.9415974 4.5543747,9.819266 3.6610655,9.2560773 Z"
         id="path5010-2"
         inkscape:connector-curvature="0"
         sodipodi:nodetypes="ccccc" />
      <path
         style="display:inline;fill:#ffffff;fill-opacity:1;stroke:none;stroke-width:0.00224777;stroke-linecap:butt;stroke-linejoin:miter;stroke-miterlimit:4;stroke-dasharray:none;stroke-opacity:1"
         d="M 3.404705,4.6619576 C 2.3993949,5.8906338 2.7372167,7.9309368 3.382352,8.7172436 3.8653138,9.3058855 4.790034,9.8283244 5.609287,9.7070817 5.4811536,9.531633 5.4045545,9.3163697 5.4045545,9.0829948 c 0,-0.4155312 0.2404394,-0.7750535 0.5890753,-0.9492849 C 5.9004371,8.0141771 5.7952851,7.8910544 5.6830703,7.7545081 5.2402407,7.215667 4.0852242,6.8102601 3.7613549,6.2899315 3.4374707,5.7695929 3.3414189,5.2983899 3.404705,4.6619576 Z"
         id="path5012-8"
         inkscape:connector-curvature="0"
         sodipodi:nodetypes="cccscccc" />
      <path
         style="display:inline;fill:#ffffff;fill-opacity:1;stroke:none;stroke-width:0.00224777;stroke-linecap:butt;stroke-linejoin:miter;stroke-miterlimit:4;stroke-dasharray:none;stroke-opacity:1"
         d="m 3.4017986,9.011364 c 0,0 0.084664,0.092913 0.1751827,0.1764522 C 3.3424082,9.322253 3.0264379,9.7800171 2.9571879,9.9397143 2.3727857,9.9785127 1.2713953,9.5854474 0.54660016,8.7055077 1.9212529,9.7773565 2.8522862,9.4219113 3.2221317,8.9929819 Z"
         id="path5014-3"
         inkscape:connector-curvature="0"
         sodipodi:nodetypes="cccccc" />
      <path
         style="display:inline;fill:#ffffff;fill-opacity:1;stroke:none;stroke-width:0.00224777;stroke-linecap:butt;stroke-linejoin:miter;stroke-miterlimit:4;stroke-dasharray:none;stroke-opacity:1"
         d="M 0.32992314,8.4529938 C 0.62719069,8.4483008 0.84749696,8.4918349 1.0185477,8.4371826 1.1896015,8.3825645 1.6196154,8.19717 1.8596142,7.9483135 2.0365319,8.3092451 2.5098677,8.6791056 3.0213365,8.9838783 2.2277096,9.8060684 0.75899734,8.7760308 0.32992314,8.4529537 Z"
         id="path5016-2"
         inkscape:connector-curvature="0"
         sodipodi:nodetypes="czccc" />
      <path
         style="display:inline;fill:#ffffff;fill-opacity:1;stroke:none;stroke-width:0.00224777;stroke-linecap:butt;stroke-linejoin:miter;stroke-miterlimit:4;stroke-dasharray:none;stroke-opacity:1"
         d="M 3.320965,8.8945533 C 2.9700273,8.3222337 2.7415076,7.7684109 2.6376002,7.0442067 1.5559508,6.7142548 1.0949858,5.9671863 0.76622901,4.8048704 0.91057368,6.6651355 2.2736336,8.899155 3.320965,8.8945533 Z"
         id="path5018-8"
         inkscape:connector-curvature="0"
         sodipodi:nodetypes="cccc" />
      <path
         style="display:inline;fill:#ffffff;fill-opacity:1;stroke:none;stroke-width:0.00224777;stroke-linecap:butt;stroke-linejoin:miter;stroke-miterlimit:4;stroke-dasharray:none;stroke-opacity:1"
         d="M 0.72417348,4.1057344 C 0.75334951,4.69585 1.276125,6.7656051 2.6376002,6.907538 2.5692625,6.3135372 2.7391816,5.5989094 2.9424854,5.1886074 2.7462852,4.4050757 1.5348973,4.3606532 1.1184238,4.2792044 0.70195165,4.1977599 0.72417348,4.1057344 0.72417348,4.1057344 Z"
         id="path5020-9"
         inkscape:connector-curvature="0"
         sodipodi:nodetypes="ccczc" />
      <path
         style="display:inline;fill:#ffffff;fill-opacity:1;stroke:none;stroke-width:0.00224777;stroke-linecap:butt;stroke-linejoin:miter;stroke-miterlimit:4;stroke-dasharray:none;stroke-opacity:1"
         d="M 3.1842963,4.8364083 C 2.9740468,4.4073296 2.9535382,3.6898203 2.9687714,3.154279 2.7211694,3.6858393 2.7981463,4.5336801 3.031854,5.0361636 Z"
         id="path5022-9"
         inkscape:connector-curvature="0"
         sodipodi:nodetypes="cccc" />
      <path
         style="display:inline;fill:#ffffff;fill-opacity:1;stroke:none;stroke-width:0.00224777;stroke-linecap:butt;stroke-linejoin:miter;stroke-miterlimit:4;stroke-dasharray:none;stroke-opacity:1"
         d="m 3.0318537,2.9965797 c 0,0 0.1078274,0.175507 0.2523144,0.2523156 C 3.4286588,3.3257088 3.798585,3.4980689 4.0201005,3.6536628 3.7947979,3.9774674 3.6889331,5.5828559 3.9307389,6.2714774 3.5102032,5.7563216 3.4645342,5.0592269 3.4996948,4.5262651 c 0,0 -0.1487891,0.032843 -0.2523205,0.2050109 C 3.0176819,4.2883948 3.0318537,2.9965797 3.0318537,2.9965797 Z"
         id="path5024-1"
         inkscape:connector-curvature="0"
         sodipodi:nodetypes="czccccc" />
      <path
         style="display:inline;fill:#ffffff;fill-opacity:1;stroke:none;stroke-width:0.00224777;stroke-linecap:butt;stroke-linejoin:miter;stroke-miterlimit:4;stroke-dasharray:none;stroke-opacity:1"
         d="M 4.4406337,2.8231091 C 4.1458798,3.767055 3.6471025,4.5153329 4.0820425,6.4241462 c 0.2036443,0.1583312 0.5186582,0.3808093 0.7580977,0.5412106 0,-0.042034 0.00174,-0.1163348 -0.010533,-0.5046393 C 4.1811511,5.7149577 4.1748511,4.6935606 4.19355,4.2844605 4.2122489,3.8753554 4.4054158,3.6671255 4.4406101,2.8231091 Z"
         id="path5026-5"
         inkscape:connector-curvature="0"
         sodipodi:nodetypes="cccczcc" />
      <path
         style="display:inline;fill:#ffffff;fill-opacity:1;stroke:none;stroke-width:0.00224777;stroke-linecap:butt;stroke-linejoin:miter;stroke-miterlimit:4;stroke-dasharray:none;stroke-opacity:1"
         d="M 5.5970994,4.9152619 C 5.4762636,5.1157984 5.0176197,5.5144373 4.871681,6.3555859 4.4432518,5.8251509 4.3078272,5.1362691 4.2671643,4.6471712 4.2265226,4.1580728 4.4187866,3.6326981 4.4411638,3.5206605 4.4635541,3.4086236 4.5002808,2.9278051 4.5046519,2.8874062 5.093685,3.522766 5.462231,4.1042958 5.5970994,4.9152619 Z"
         id="path5028-2"
         inkscape:connector-curvature="0"
         sodipodi:nodetypes="cczzccc" />
      <path
         style="display:inline;fill:#ffffff;fill-opacity:1;stroke:none;stroke-width:0.00224777;stroke-linecap:butt;stroke-linejoin:miter;stroke-miterlimit:4;stroke-dasharray:none;stroke-opacity:1"
         d="m 5.2965786,1.8964506 c 0.37329,0.093744 0.6231516,0.4316887 0.8363343,0.7545593 C 5.9446491,2.8846695 5.5780363,3.6024237 5.493581,4.156403 5.3570907,3.8443166 5.1181632,3.439021 4.9211583,3.2494514 4.9247626,2.8182749 4.982761,2.2784917 5.2965786,1.8964506 Z"
         id="path5030-5"
         inkscape:connector-curvature="0"
         sodipodi:nodetypes="ccccc" />
      <path
         style="display:inline;fill:#ffffff;fill-opacity:1;stroke:none;stroke-width:0.00224777;stroke-linecap:butt;stroke-linejoin:miter;stroke-miterlimit:4;stroke-dasharray:none;stroke-opacity:1"
         d="M 4.8579685,3.1974114 4.6944216,3.0004077 C 4.7834108,2.7108583 4.8731551,2.27236 5.2185204,1.9522075 5.0100531,2.1673086 4.8251344,2.7577535 4.8579685,3.1974114 Z"
         id="path5032-1"
         inkscape:connector-curvature="0"
         sodipodi:nodetypes="cccc" />
    </g>
  </g>
</svg>
